# xmcd
#
# Track frame offsets: 
#        150
#        17090
#        30387
#        45053
#        72103
#        93201
#        112599
#        128963
#        144480
#        157561
#        171465
#
# Disc length: 2677 seconds
#
# Revision: 0
# Processed by: cddbd v1.5.2PL0 Copyright (c) Steve Scherf et al.
# Submitted via: ExactAudioCopyFreeDBPlugin 1.0
#
DISCID=750a730b
DTITLE=Zoellner, Philip - Z
DYEAR=2004
DGENRE=Alt. Rock
TTITLE0=State of Mind
TTITLE1=Can't Recall Your Name
TTITLE2=Why Don't You Feel Like I Do?
TTITLE3=I Want to Be Right Here With You
TTITLE4=Lovely Queen
TTITLE5=Taxi Cab Driver
TTITLE6=You Make Me Have to Choose
TTITLE7=Daydream #5
TTITLE8=Run Run Baby
TTITLE9=Love In Traffic
TTITLE10=All You Need to Say
EXTD=
EXTT0=
EXTT1=
EXTT2=
EXTT3=
EXTT4=
EXTT5=
EXTT6=
EXTT7=
EXTT8=
EXTT9=
EXTT10=
PLAYORDER=
